<?xml version="1.0" standalone="no"?><!DOCTYPE svg PUBLIC "-//W3C//DTD SVG 1.1//EN" "http://www.w3.org/Graphics/SVG/1.1/DTD/svg11.dtd"><svg class="icon" height="512" viewBox="0 0 1024 1024" version="1.1" xmlns="http://www.w3.org/2000/svg"><path d="M918.253268 564.398829 119.383415 564.398829c-30.819902 0-55.795512-24.725854-55.795512-55.271024 0-30.545171 24.97561-55.296 55.795512-55.296l798.869854 0C949.073171 453.806829 974.04878 478.582634 974.04878 509.102829 974.04878 539.648 949.073171 564.398829 918.253268 564.398829zM918.253268 269.511805 119.383415 269.511805c-30.819902 0-55.795512-24.750829-55.795512-55.296 0-30.520195 24.97561-55.271024 55.795512-55.271024l798.869854 0C949.073171 158.919805 974.04878 183.670634 974.04878 214.215805 974.04878 244.760976 949.073171 269.511805 918.253268 269.511805zM119.383415 748.718829l798.869854 0C949.073171 748.718829 974.04878 773.444683 974.04878 803.989854c0 30.545171-24.97561 55.296-55.795512 55.296L119.383415 859.285854c-30.819902 0-55.795512-24.750829-55.795512-55.296C63.562927 773.444683 88.563512 748.718829 119.383415 748.718829z" /></svg>