<?xml version="1.0" encoding="UTF-8" standalone="no"?>
<!-- Created with Inkscape (http://www.inkscape.org/) -->

<svg
   xmlns:dc="http://purl.org/dc/elements/1.1/"
   xmlns:cc="http://creativecommons.org/ns#"
   xmlns:rdf="http://www.w3.org/1999/02/22-rdf-syntax-ns#"
   xmlns:svg="http://www.w3.org/2000/svg"
   xmlns="http://www.w3.org/2000/svg"
   xmlns:sodipodi="http://sodipodi.sourceforge.net/DTD/sodipodi-0.dtd"
   xmlns:inkscape="http://www.inkscape.org/namespaces/inkscape"
   width="149.78101mm"
   height="167.90523mm"
   viewBox="0 0 149.78101 167.90523"
   version="1.1"
   id="svg8"
   inkscape:version="0.92.3 (2405546, 2018-03-11)"
   sodipodi:docname="apple_icon.svg">
  <defs
     id="defs2" />
  <sodipodi:namedview
     id="base"
     pagecolor="#ffffff"
     bordercolor="#666666"
     borderopacity="1.0"
     inkscape:pageopacity="0.0"
     inkscape:pageshadow="2"
     inkscape:zoom="0.7"
     inkscape:cx="378.54637"
     inkscape:cy="294.22942"
     inkscape:document-units="mm"
     inkscape:current-layer="layer1"
     showgrid="false"
     inkscape:window-width="1366"
     inkscape:window-height="705"
     inkscape:window-x="-8"
     inkscape:window-y="-8"
     inkscape:window-maximized="1"
     showguides="true"
     fit-margin-top="0"
     fit-margin-left="0"
     fit-margin-right="0"
     fit-margin-bottom="0" />
  <metadata
     id="metadata5">
    <rdf:RDF>
      <cc:Work
         rdf:about="">
        <dc:format>image/svg+xml</dc:format>
        <dc:type
           rdf:resource="http://purl.org/dc/dcmitype/StillImage" />
        <dc:title />
      </cc:Work>
    </rdf:RDF>
  </metadata>
  <g
     inkscape:label="Layer 1"
     inkscape:groupmode="layer"
     id="layer1"
     transform="translate(-23.529027,-120.61333)">
    <path
       style="fill:#808000;stroke:#808000;stroke-width:0.26458332px;stroke-linecap:butt;stroke-linejoin:miter;stroke-opacity:1"
       d="m 93.009796,175.9269 c -6.64151,0.56012 -10.866906,-9.25847 -12.294399,-15.7689 -1.920726,-8.75993 0.25156,-19.43467 6.1472,-26.19241 7.026479,-8.05394 20.815243,-17.06771 29.934193,-11.49259 2.14045,1.30863 2.20823,5.40605 0.8018,7.48355 -4.61703,6.82002 -17.58163,1.26664 -23.786985,6.68173 -5.561675,4.85338 -9.403162,12.954 -8.819896,20.31249 0.4843,6.10993 9.662548,9.37672 9.888974,15.50163 0.04859,1.3145 -0.560145,3.36396 -1.870887,3.4745 z"
       id="path830"
       inkscape:connector-curvature="0"
       sodipodi:nodetypes="sssssssss" />
    <path
       style="opacity:1;fill:#00ff00;fill-opacity:1;stroke:#00ff00;stroke-width:6.46500015;stroke-linecap:butt;stroke-linejoin:miter;stroke-miterlimit:4;stroke-dasharray:none;stroke-opacity:1"
       d="m 93.009796,175.9269 c -7.518918,1.25405 -9.005757,-13.35725 -16.036174,-16.30344 -8.298836,-3.47773 -18.913911,-3.95903 -26.99422,0 -9.921672,4.86123 -16.582041,15.79267 -20.312485,26.19242 -4.122758,11.49345 -3.2297,24.59809 -1.069079,36.61592 1.97305,10.97452 6.456873,21.67242 12.561668,31.00326 5.93265,9.06773 13.706364,17.23481 22.717911,23.25245 6.383745,4.26287 13.725143,9.10359 21.381561,8.55263 6.569039,-0.47271 10.550394,-10.52895 17.105252,-9.88898 0.94256,0.092 1.19584,1.77649 2.13816,1.87089 2.14406,0.21478 5.61265,-4.54358 5.61265,-3.20722 0,1.33633 11.12529,6.01029 16.83798,4.81084 13.25097,-2.7822 23.95996,-14.52846 31.27054,-25.92514 8.16775,-12.73293 12.56019,-28.72595 11.75986,-43.83221 -0.83856,-15.82778 -6.93135,-32.21299 -17.10525,-44.36674 -6.61996,-7.90822 -16.20679,-14.92176 -26.45969,-16.03617 -8.51453,-0.92546 -17.91803,2.59774 -24.32152,8.28536 -5.243539,4.65735 -2.169479,17.82236 -9.087164,18.97613 z"
       id="path828"
       inkscape:connector-curvature="0"
       sodipodi:nodetypes="ssssssssssssssssss" />
    <path
       style="fill:#ffffff;stroke-width:0.26458332"
       d="m 92.57249,255.17829 c -8.46021,-0.89682 -16.477059,-5.05307 -21.717849,-11.25938 -1.81748,-2.15233 -2.35334,-2.49198 -3.93156,-2.49198 -2.01411,0 -2.13707,-1.40606 -0.14682,-1.67885 1.60492,-0.21998 3.20926,-0.95614 4.35152,-1.9967 0.96252,-0.87684 1.26585,-0.92018 1.69365,-0.24198 0.19807,0.31401 0.0561,0.69763 -0.57641,1.55774 -0.46156,0.62762 -0.8392,1.42383 -0.8392,1.76936 0,0.83676 3.68783,4.49347 6.41524,6.36109 2.62389,1.79675 7.337779,4.04884 10.385799,4.96187 2.15782,0.64638 2.89119,0.72521 7.815878,0.84021 3.333891,0.0779 6.166302,0.0134 7.327492,-0.16679 4.19717,-0.65121 10.38715,-3.33676 14.22538,-6.17173 2.42464,-1.79088 5.68855,-5.11773 5.68855,-5.79827 0,-0.29218 -0.35719,-1.05038 -0.79375,-1.6849 -0.90451,-1.31466 -0.94743,-1.52746 -0.3998,-1.98196 0.32393,-0.26883 0.56039,-0.18082 1.33028,0.49515 1.32183,1.16059 2.73968,1.82584 4.34533,2.03884 2.34799,0.31148 2.0816,1.54785 -0.37744,1.75178 l -1.44045,0.11945 -2.80415,2.94711 c -3.39658,3.56973 -5.46627,5.16739 -9.12044,7.04032 -4.89847,2.51069 -9.16873,3.53711 -15.478131,3.72041 -2.037291,0.0592 -4.716191,2.6e-4 -5.953119,-0.13079 z"
       id="path861"
       inkscape:connector-curvature="0" />
    <path
       style="fill:#f9f9f9;fill-opacity:1;stroke:none;stroke-width:0.26458332"
       d="m 72.846816,214.43232 c -1.55465,-0.55037 -3.39134,-2.42693 -4.3221,-4.41594 -3.31868,-7.09185 0.26977,-16.68506 6.237899,-16.67613 4.60934,0.007 8.29818,6.4206 7.31821,12.72399 -0.6528,4.19898 -3.18112,7.80628 -5.96216,8.50656 -1.48578,0.37412 -1.86982,0.35787 -3.271849,-0.13848 z"
       id="path859"
       inkscape:connector-curvature="0" />
    <path
       style="fill:#f9f9f9;fill-opacity:1;stroke:none;stroke-width:0.26458332"
       d="m 119.2298,213.41204 c -2.88587,-0.93688 -5.0732,-3.71941 -5.84565,-7.43629 -0.49544,-2.384 -0.17777,-6.42769 0.6684,-8.50808 2.2118,-5.43794 7.14011,-7.02387 10.71288,-3.44739 3.41189,3.41544 4.2619,10.07369 1.90567,14.92748 -1.59029,3.27598 -4.92999,5.27957 -7.4413,4.46428 z"
       id="path855"
       inkscape:connector-curvature="0" />
  </g>
</svg>
